<?xml version="1.0" standalone="no"?>
<!DOCTYPE svg PUBLIC "-//W3C//DTD SVG 20010904//EN"
 "http://www.w3.org/TR/2001/REC-SVG-20010904/DTD/svg10.dtd">
<svg version="1.0" xmlns="http://www.w3.org/2000/svg"
 width="260.000000pt" height="260.000000pt" viewBox="0 0 260.000000 260.000000"
 preserveAspectRatio="xMidYMid meet">
<metadata>
Created by potrace 1.14, written by Peter Selinger 2001-2017
</metadata>
<g transform="translate(0.000000,260.000000) scale(0.100000,-0.100000)"
fill="#000000" stroke="none">
<path d="M1058 2595 c-2 -3 -24 -7 -49 -10 -95 -12 -183 -32 -301 -70 -82 -26
-230 -89 -288 -122 -118 -67 -164 -97 -240 -158 -13 -11 -60 -53 -102 -94
l-78 -74 0 -799 0 -799 58 -58 c31 -31 86 -80 122 -109 36 -29 70 -57 77 -62
7 -6 14 -10 17 -10 2 0 27 -15 55 -34 44 -30 228 -125 256 -133 6 -1 48 -16
95 -33 l85 -30 521 0 c428 0 529 3 570 15 27 8 51 14 54 14 3 0 41 16 85 36
254 115 380 199 542 363 l63 64 0 775 0 776 -72 74 c-40 41 -100 95 -133 119
-33 25 -67 51 -75 57 -64 52 -244 147 -365 192 -90 33 -249 78 -315 89 -19 3
-46 9 -60 12 -28 8 -515 16 -522 9z"/>
</g>
</svg>
